PathFileType	4	(X/Y/Z)	Patient4_TMGait_0pt4_02_right_08.trc.trc
DataRate	CameraRate	NumFrames	NumMarkers	Units	OrigDataRate	OrigDataStartFrame	OrigNumFrames
74.866310160428	74.866310160428	5	33	mm	74.866310160428	18	       141
Frame#	Time	Sacral			L.Shoulder			Chest			R.Shoulder			Neck			R.ASIS			L.ASIS			R.Thigh.Superior			R.Thigh.Lateral			R.Thigh.Inferior			R.Patella			L.Thigh.Superior			L.Thigh.Lateral			L.Thigh.Inferior			L.Patella			L.Shank.Superior			L.Shank.Lateral			L.Shank.Inferior			R.Shank.Superior			R.Shank.Lateral			R.Shank.Inferior			R.Heel			R.Midfoot.Superior			R.Midfoot.Lateral			R.Toe			L.Heel			L.Midfoot.Lateral			L.Midfoot.Superior			L.Toe			L.Elbow			L.Wrist			R.Elbow			R.Wrist			
		X1	Y1	Z1	X2	Y2	Z2	X3	Y3	Z3	X4	Y4	Z4	X5	Y5	Z5	X6	Y6	Z6	X7	Y7	Z7	X8	Y8	Z8	X9	Y9	Z9	X10	Y10	Z10	X11	Y11	Z11	X12	Y12	Z12	X13	Y13	Z13	X14	Y14	Z14	X15	Y15	Z15	X16	Y16	Z16	X17	Y17	Z17	X18	Y18	Z18	X19	Y19	Z19	X20	Y20	Z20	X21	Y21	Z21	X22	Y22	Z22	X23	Y23	Z23	X24	Y24	Z24	X25	Y25	Z25	X26	Y26	Z26	X27	Y27	Z27	X28	Y28	Z28	X29	Y29	Z29	X30	Y30	Z30	X31	Y31	Z31	X32	Y32	Z32	X33	Y33	Z33	

18	10.337071428571	876.069849446942	1009.650502895103	417.302157403497	1090.077936113640	1431.172635161983	238.418894056538	1165.857454302237	1368.604218521597	415.119778881680	1058.469525849369	1449.537933654669	571.846893521715	1048.339987741276	1498.025766481444	389.774932351910	1093.323340285867	950.765784851274	558.823470197626	1104.277106928272	963.281478858475	282.332990035991	1153.016700755538	760.672353357961	540.004927588140	1094.867027222848	647.154364061919	614.482014503528	1180.982795823947	597.873440715590	538.052232178051	1207.325087039772	522.482019374332	555.984272844531	1112.458746522220	738.156701158777	311.319438051707	1001.308482820636	637.718434177350	247.695451059369	1067.621919447458	548.442654914818	310.890161050293	1055.419744277664	483.070520845593	319.713205991012	1026.036288862344	415.190132378466	313.216718405261	926.846886244702	305.225229885457	268.219577517390	976.309512563485	192.718035567818	340.241106662428	1197.684257016816	439.755558718685	570.499032545440	1154.642982216824	324.608263020432	638.009376359502	1232.224604943247	243.425997876158	589.508919896328	1155.463495098672	52.485430727696	566.640303587523	1317.283003759640	130.426289626648	603.584127434932	1241.737790740716	52.181475926474	637.913542472047	1443.062812116940	95.977265717807	624.322430416025	845.595846993257	39.864485325374	394.207730329113	915.219241384827	35.116957170072	309.831343944268	1000.180351245217	95.993842050947	331.895633998990	1127.265282985890	42.144214192867	298.576747433381	1162.210750465529	1105.524256836678	88.314523450905	1406.282273447418	1010.720021872585	92.771041102643	899.482751489939	1144.245648061671	678.477056226231	876.694335464268	882.082653804789	682.330601478625	
19	10.350428571429	877.106640330079	1008.624825595455	418.929960556958	1090.161436731078	1430.209986002815	239.910283599274	1166.078820852456	1368.036185643915	416.699216297518	1058.457222931005	1448.887979741731	573.330130921439	1048.380872024896	1497.212818525955	391.164761674509	1094.304095568662	949.694933494060	560.624092547820	1105.412603871945	962.758206411361	284.038388994054	1153.977070675201	759.351272089695	541.614180504843	1094.453331595269	645.022460123676	614.312397707314	1181.162732851985	596.406922920265	538.374750054546	1206.732516581273	520.699414446992	555.458466170106	1112.161058070290	737.206572376406	312.473081230464	1000.164392842167	637.523932167821	248.713084199677	1065.694365571589	547.695629522738	311.757908532765	1053.076630425636	482.285450457350	320.404841454983	1023.114235417225	414.698087774505	313.800667362481	923.094661622791	305.549814177004	268.637899971354	971.694222514815	192.470112208430	340.316843025576	1196.338484614713	437.250225544467	569.151556646214	1151.827744462295	322.158200136620	635.512569688610	1228.581443429856	240.588816357790	586.893539902739	1149.956685686218	51.054743909259	562.794058055945	1312.096883027532	127.077617963219	600.372847938550	1235.744352899608	50.050389778843	634.539005720676	1437.398055704744	91.551668223356	621.821645123969	840.217272329309	39.947977771521	394.112841504809	909.845276694541	35.104036645146	309.808570437008	994.822712338398	95.936414857682	331.879125667716	1121.876883181927	42.032617858881	298.581552680238	1161.539692862671	1103.543553924155	91.115968644476	1403.995935516723	1003.956682322738	94.636804755460	901.795809581899	1142.487318175972	680.791622372055	881.877959676265	880.199890214732	685.266748136901	
20	10.363785714286	878.310434345437	1007.483825206342	420.836310813936	1089.997760800446	1429.246502587386	241.610725161312	1166.257620109790	1367.506360605823	418.418346504105	1058.441582647857	1448.148573790337	575.051449304589	1048.273335241214	1496.348864677073	392.799704574415	1095.652282535695	948.547260262107	562.475370099361	1106.620483235399	962.229382036372	285.814563333584	1155.647936711685	758.095871388140	543.143304841880	1094.736063715912	642.895365522117	613.980038595114	1182.004692729828	595.008421059110	538.525546666156	1206.627625848780	518.621382518350	554.644215685164	1112.010221574508	736.237383144930	313.571641620864	999.132894369103	637.312073271483	249.805546055855	1063.968847079334	546.924969481002	312.598299824098	1050.978109796099	481.427254485491	321.106242999603	1020.375129333917	414.140542805028	314.416355823988	919.441558409122	305.881210650279	269.118418665219	967.119532226282	192.178392611907	340.403724096772	1195.041249585878	434.248078198210	567.526665284651	1148.383277139524	319.588043180380	632.939542310755	1223.511322570089	237.053035528387	584.058837752460	1141.547165548123	49.633692987799	559.190958001750	1304.518081399029	122.770705976114	596.916102160396	1226.950053479024	47.646291938016	631.311219643374	1429.192771455904	85.436755555969	619.031871782321	834.839067684137	40.022846003966	394.008654370601	904.476009271392	35.090271882145	309.788191295226	989.459511372577	95.880431431515	331.865203205519	1116.486669500683	41.907395579465	298.581347090225	1160.528610440532	1101.485199830283	94.168544490726	1400.895234064441	996.198475472986	96.562382232965	904.736538228839	1140.300662938435	683.518778552341	888.615476208686	877.882212379083	688.683897671196	
21	10.377142857143	879.677114880082	1006.250888252990	423.019340633558	1089.596945354003	1428.292942366948	243.524554358189	1166.414041268501	1367.022034024258	420.276552070817	1058.458922260766	1447.329312164715	577.020851801923	1048.045031097294	1495.450826017228	394.691358106604	1097.379892380754	947.336835904874	564.342812992340	1107.898414056975	961.709975826934	287.640929898642	1157.887413393305	756.800632265589	544.549810038720	1095.550715237741	640.801082321938	613.554801005763	1183.263250811341	593.618120959012	538.499425886681	1206.763760287561	516.301991863692	553.524238062592	1112.022538517261	735.262647033946	314.590677993251	998.213322123562	637.091374104770	250.977806378825	1062.450938371854	546.139315865527	313.418203671905	1049.139189793653	480.496085268365	321.827695882477	1017.828957822873	413.520793567937	315.079339625976	915.892025958033	306.226560893382	269.676583081015	962.586995949928	191.849242766802	340.518087793562	1193.755022608262	430.895801514710	565.718672416309	1144.587322458948	316.956597921780	630.467848023699	1217.490575677223	233.050071834750	581.145408400196	1131.178759100402	48.206642709953	556.060293290598	1295.340603168892	117.915378436058	593.347070943824	1216.356153888230	45.157309861706	628.399021433704	1419.356487771461	78.346090509750	615.994361939959	829.459702902798	40.102733308592	393.898010716375	899.113293994797	35.084591833044	309.773046995133	984.095315598570	95.833015596626	331.857338069292	1111.097809390879	41.762952621748	298.573946990843	1159.201131012288	1099.373542277525	97.467027813409	1396.913146630882	987.510047984682	98.531293855264	908.238943999657	1137.774048527240	686.628834978768	896.788332838678	875.251393160908	692.537267741557	
22	10.390500000000	881.191727470715	1004.969544952521	425.463353500538	1088.980627800477	1427.379241171491	245.652152913191	1166.571101835276	1366.602318155191	422.269745378388	1058.550301892227	1446.455333505798	579.243208901370	1047.733877778457	1494.553988271243	396.846819083217	1099.471662975562	946.102701281491	566.194359177635	1109.241894155118	961.225471155602	289.502385833971	1160.525070640752	755.405978892825	545.798071375885	1096.733436471876	638.799539678553	613.119404318000	1184.699373048507	592.223513559840	538.303641763996	1206.918389882847	513.844582051746	552.137700729070	1112.218947431908	734.307221078500	315.529539659967	997.428510817144	636.874099247104	252.242161146775	1061.171946793202	545.356048925620	314.240971601632	1047.600359893101	479.496582154537	322.586272863357	1015.504571365254	412.848445666801	315.808585008961	912.465419039119	306.606276620691	270.329685712457	958.108172512915	191.500001521285	340.676101522174	1192.458480982250	427.392083021280	563.856154271154	1140.720940985101	314.364310967272	628.268459291336	1211.019984758482	228.869545838560	578.312048578965	1119.843715094766	46.803530394411	553.561485611709	1285.376406473766	112.973896836785	589.837708149226	1204.976450373737	42.790438109706	625.938447912695	1408.799840950691	71.053772770858	612.832847859604	824.078231971318	40.218541018167	393.783754427952	893.759907046629	35.102143711375	309.765736335614	978.741531965706	95.804085454528	331.855849480273	1105.715919843215	41.593117882615	298.556552584341	1157.575620288519	1097.246032033075	101.007958223443	1391.967532604922	977.982919009844	100.533263660783	912.266663562413	1134.999647091214	690.086639816069	906.282938830456	872.436235050089	696.771574765619	
